<svg xmlns="http://www.w3.org/2000/svg" width="350" height="120"><g fill="#019cd5"><g style="line-height:125%;-inkscape-font-specification:'Lato Bold'" font-weight="700" font-size="60" font-family="Lato" letter-spacing="0" word-spacing="0"><path style="-inkscape-font-specification:'Lato Bold'" d="M137.186 56.865h1.89q1.14 0 1.89-.3.75-.33 1.29-1.02l11.97-15.15q.75-.96 1.56-1.32.84-.39 2.1-.39h6.96l-14.61 18.03q-1.29 1.65-2.67 2.34.99.36 1.77 1.02.81.63 1.53 1.68l15.06 20.31h-7.11q-1.44 0-2.16-.39-.69-.42-1.17-1.2l-12.27-16.02q-.57-.81-1.32-1.14-.75-.33-2.16-.33h-2.55v19.08h-8.07v-43.38h8.07v18.18z"/><path style="-inkscape-font-specification:'Lato Bold'" d="M180.472 50.805q3.42 0 6.21 1.11 2.82 1.11 4.8 3.15 2.01 2.04 3.09 4.98 1.08 2.94 1.08 6.57 0 3.66-1.08 6.6-1.08 2.94-3.09 5.01-1.98 2.07-4.8 3.18-2.79 1.11-6.21 1.11-3.45 0-6.27-1.11-2.82-1.11-4.83-3.18-1.98-2.07-3.09-5.01-1.08-2.94-1.08-6.6 0-3.63 1.08-6.57 1.11-2.94 3.09-4.98 2.01-2.04 4.83-3.15 2.82-1.11 6.27-1.11zm0 26.01q3.84 0 5.67-2.58 1.86-2.58 1.86-7.56 0-4.98-1.86-7.59-1.83-2.61-5.67-2.61-3.9 0-5.79 2.64-1.86 2.61-1.86 7.56 0 4.95 1.86 7.56 1.89 2.58 5.79 2.58zM201.305 82.065v-44.58h7.41v17.13q1.8-1.71 3.96-2.76 2.16-1.05 5.07-1.05 2.52 0 4.47.87 1.95.84 3.24 2.4 1.32 1.53 1.98 3.69.69 2.13.69 4.71v19.59h-7.41v-19.59q0-2.82-1.29-4.35-1.29-1.56-3.93-1.56-1.92 0-3.6.87-1.68.87-3.18 2.37v22.26h-7.41zM248.282 50.805q2.91 0 5.37.93t4.23 2.73q1.77 1.77 2.76 4.38 1.02 2.58 1.02 5.91 0 1.68-.36 2.28-.36.57-1.38.57h-19.05q.18 2.37.84 4.11.66 1.71 1.74 2.85 1.08 1.11 2.55 1.68 1.5.54 3.3.54 1.8 0 3.09-.42 1.32-.42 2.28-.93.99-.51 1.71-.93.75-.42 1.44-.42.93 0 1.38.69l2.13 2.7q-1.23 1.44-2.76 2.43-1.53.96-3.21 1.56-1.65.57-3.39.81-1.71.24-3.33.24-3.21 0-5.97-1.05-2.76-1.08-4.8-3.15-2.04-2.1-3.21-5.16-1.17-3.09-1.17-7.14 0-3.15 1.02-5.91 1.02-2.79 2.91-4.83 1.92-2.07 4.65-3.27 2.76-1.2 6.21-1.2zm.15 5.31q-3.24 0-5.07 1.83t-2.34 5.19h13.98q0-1.44-.42-2.7-.39-1.29-1.2-2.25-.81-.96-2.07-1.5-1.23-.57-2.88-.57zM267.164 82.065v-30.78h4.35q1.14 0 1.59.42.45.39.6 1.44l.42 3.48q1.47-2.76 3.45-4.32 1.98-1.59 4.68-1.59 2.13 0 3.42.93l-.48 5.55q-.15.54-.45.78-.27.21-.75.21-.45 0-1.35-.15-.87-.15-1.71-.15-1.23 0-2.19.36t-1.74 1.05q-.75.66-1.35 1.62-.57.96-1.08 2.19v18.96h-7.41zM302.347 50.805q3.42 0 6.21 1.11 2.82 1.11 4.8 3.15 2.01 2.04 3.09 4.98 1.08 2.94 1.08 6.57 0 3.66-1.08 6.6-1.08 2.94-3.09 5.01-1.98 2.07-4.8 3.18-2.79 1.11-6.21 1.11-3.45 0-6.27-1.11-2.82-1.11-4.83-3.18-1.98-2.07-3.09-5.01-1.08-2.94-1.08-6.6 0-3.63 1.08-6.57 1.11-2.94 3.09-4.98 2.01-2.04 4.83-3.15 2.82-1.11 6.27-1.11zm0 26.01q3.84 0 5.67-2.58 1.86-2.58 1.86-7.56 0-4.98-1.86-7.59-1.83-2.61-5.67-2.61-3.9 0-5.79 2.64-1.86 2.61-1.86 7.56 0 4.95 1.86 7.56 1.89 2.58 5.79 2.58zM323.18 82.065v-30.78h4.53q1.44 0 1.89 1.35l.51 2.43q.93-.96 1.95-1.74 1.05-.78 2.19-1.35 1.17-.57 2.49-.87 1.32-.3 2.88-.3 2.52 0 4.47.87 1.95.84 3.24 2.4 1.32 1.53 1.98 3.69.69 2.13.69 4.71v19.59h-7.41v-19.59q0-2.82-1.29-4.35-1.29-1.56-3.93-1.56-1.92 0-3.6.87-1.68.87-3.18 2.37v22.26h-7.41z"/></g><path d="M.002 5.957C6.548 3.38 14.062 3.854 20.245.29 26.928-1.22 32.64 3.505 38.173 6.352c3.289 1.762 8.963 10.131 8.78 8.524-2.956-2.274-5.064-6.142-8.971-6.9 1.53 1.975 4.15 4.467 4.424 6.364-2.62-1.057-8.04-7.5-5.488-1.536.808 4.53-1.368 10.886-6.981 10.607-7.412-.328-8.2 9.946-3.113 13.497 5.8 3.96 8.682-6.033 14.472-4.594 5.682 1.221 9.709 5.812 13.956 9.36 6.387 6.117 10.345 14.082 13.563 22.101 3.209 5.365 7.549 10.276 9.031 16.45-2.375 2.751-7.751-3.01-11.042-3.904-2.097-1.166-10.87-5.785-5.583-1.516 5.457 3.539 5.284 10.073.556 13.953-3.373 4.288-7.595 8.244-9.138 13.598-.136 2.82 4.33 4.852 4.004 6.785-1.084-4.021-8.185-2.51-3.842 1.353 1.594 1.354 3.665 5.291-.113 2.755.37 1.836 1.622 6.478-1.016 2.694-3.069-5.885-3.076-13.615 1.74-18.632 3.516-4.77 8.442-9.001 9.964-14.847-.662-5.876-8.31-8.169-12.846-10.328-2.35 4.181-.227 9.833-.913 14.59.183 7.758-.808 15.512-3.04 22.956-1.893 5.262 3.719 7.212 6.499 9.7-5.095-3.29-11.416-2.327-16.746.021-1.79 1.277-8.387.305-3.142-1.04 2.679.79 8.07-2.26 2.31-1.555-2.206 1.063-10.49-.966-4.276-1.527 2.437.487 7.825.732 3.496-2.287 3.947 1.212 8.109 3.59 10.173-1.913 2.03-5.842 2.053-12.157 2.803-18.246.551-6.488-.218-13.09-2.436-19.212-.47-7.065-7.72-9.974-12.382-13.964-2.199-3.185 1.376 7.267-1.236 2.2-2.06 4.352-7.22-9.376-6.223-6.926.55.82-3.915-8.637-2.7-6.5-2.406-6.175-5.628-12.296-5.362-19.093.205-4.11.296-8.921 3.287-12.093 3.078-2.712 11.267 1.239 7.97-5.342-4.232-4.57-11.032-2.532-16.39-5.032C8.377 5.766 3.123 8.328 0 5.956z"/></g></svg>